# xmcd
#
# Track frame offsets:
#	150
#	11025
#	23773
#	37783
#	51093
#	63198
#	74035
#	86725
#	98525
#	110803
#	125978
#	135888
#	146505
#	159513
#	171493
#	187478
#
# Disc length: 2681 seconds
#
# Revision: 1
# Processed by: cddbd v1.5PL3 Copyright (c) Steve Scherf et al.
# Submitted via: dBpowerAMP V4.0
#
DISCID=e60a7710
DTITLE=Howlin ' Wolf - Killing Floor
DYEAR=1992
DGENRE=Blues
TTITLE0=Little Red Rooster
TTITLE1=Killing Floor
TTITLE2=Smokestack Lightning
TTITLE3=Moanin At Midnight
TTITLE4=Dorothy May
TTITLE5=Wang Dang Doodle
TTITLE6=Back Door Man
TTITLE7=Built For Comfort
TTITLE8=How Many More Years
TTITLE9=Goin' Down Slow
TTITLE10=Natchez Burning
TTITLE11=Who's Been Talkin'
TTITLE12=I Asked For Water, She Gave Me Gasoline
TTITLE13=Louise
TTITLE14=Bluebird
TTITLE15=300lbs Of Joy
EXTD=
EXTT0=
EXTT1=
EXTT2=
EXTT3=
EXTT4=
EXTT5=
EXTT6=
EXTT7=
EXTT8=
EXTT9=
EXTT10=
EXTT11=
EXTT12=
EXTT13=
EXTT14=
EXTT15=
PLAYORDER=
